<svg xmlns="http://www.w3.org/2000/svg" xmlns:xlink="http://www.w3.org/1999/xlink" width="340" height="237" viewBox="0 0 340 237">
    <defs>
        <path id="a" d="M.235 6.33h5.318V.977H.235V6.33z"/>
        <path id="c" d="M0 235.93h339.326V0H0z"/>
    </defs>
    <g fill="none" fill-rule="evenodd" transform="translate(.5 .309)">
        <path fill="#FEFEFE" d="M246.297 160.059a8.74 8.74 0 0 1 2.58 6.226v60.533c0 4.855-3.95 8.804-8.804 8.804H104.698a8.74 8.74 0 0 1-6.228-2.578 8.747 8.747 0 0 1-2.58-6.226v-60.533c0-2.352.917-4.563 2.58-6.226a8.748 8.748 0 0 1 6.228-2.58h135.375c2.35 0 4.563.917 6.224 2.58z"/>
        <path fill="#EC174C" d="M246.297 160.059a8.744 8.744 0 0 0-6.224-2.58h-37.85l21.774 36.33 1.99.249 1.162 1.657.002 1.576 1.409.247 1.247 1.74v1.493l1.41.249s1.41 1.49 1.41 1.574l.003 3.4s3.069 2.818 5.805 3.896c1.91.744 2.159 3.813 3.24 5.47 1.493 2.323 3.483 3.314 3.07 4.643-.994 3.567-4.64 9.54-8.038 9.87l-13.436.012.003 5.737h16.799c4.854 0 8.804-3.949 8.804-8.804v-60.533a8.74 8.74 0 0 0-2.58-6.226"/>
        <path fill="#004785" d="M114.095 223.163a6.043 6.043 0 0 1-6.049-6.04 6.043 6.043 0 0 1 6.041-6.05 6.042 6.042 0 0 1 6.049 6.042 6.042 6.042 0 0 1-6.04 6.048zm75.226-65.682h-84.623a8.75 8.75 0 0 0-6.228 2.578 8.754 8.754 0 0 0-2.58 6.226v60.532c0 2.352.918 4.563 2.58 6.226a8.743 8.743 0 0 0 6.228 2.578h54.971c-1.38-2.296-2.928-4.909-3.404-5.702l-6.55.002c-.01-16.253 5.542-25.293 12.092-27.04.91-.166.496-4.645-.668-5.97 0 0-3.15.084-3.812-.082-.831-.247-.252-1.076-.252-1.076l3.067-6.636-.416-1.825-11.36.006c-.166 0 9.366-6.556 9.366-6.556.487-17.249 18.152-18.585 28.852-11.46 6.305 4.227 6.807 12.52 6.312 18.323-.081.333-1.657.084-1.657.084s-1.077 6.304 1.744 6.302l12.439-.006c5.06-.168 9.953 3.228 9.953 3.228l1.24-4.31-27.294-35.422z"/>
        <g transform="translate(252.633 229.6)">
            <mask id="b" fill="#fff">
                <use xlink:href="#a"/>
            </mask>
            <path fill="#EC174C" d="M2.36 3.426v-.672H3c.272 0 .64 0 .64.3 0 .306-.188.372-.5.372h-.78zm1.092.499c.493-.032.759-.312.759-.826 0-.734-.44-.847-1.08-.847H1.778v2.78h.582V3.926h.486l.648 1.108h.636l-.678-1.108zm-.557 2.406c1.483 0 2.658-1.187 2.658-2.678A2.649 2.649 0 0 0 2.895.977a2.65 2.65 0 0 0-2.66 2.676 2.652 2.652 0 0 0 2.66 2.678zm0-4.772c1.146 0 2.075.894 2.075 2.094 0 1.196-.929 2.101-2.075 2.101-1.15 0-2.078-.905-2.078-2.101 0-1.2.928-2.094 2.078-2.094z" mask="url(#b)"/>
        </g>
        <mask id="d" fill="#fff">
            <use xlink:href="#c"/>
        </mask>
        <path fill="#004785" d="M95.317 140.664h154.556v-2.386H95.317zM2.916 117.301c.122.494.317.939.583 1.333.267.395.615.71 1.044.948.43.239.951.357 1.567.357s1.138-.118 1.567-.357a2.967 2.967 0 0 0 1.044-.948c.268-.394.462-.839.584-1.333.122-.492.182-1 .182-1.522 0-.546-.06-1.075-.182-1.584a4.19 4.19 0 0 0-.584-1.366 2.953 2.953 0 0 0-1.044-.96c-.429-.237-.951-.354-1.567-.354s-1.138.117-1.567.355a2.967 2.967 0 0 0-1.044.959c-.266.4-.46.856-.583 1.366a6.792 6.792 0 0 0-.183 1.584c0 .522.062 1.03.183 1.522m-2.499-4.108a6.227 6.227 0 0 1 1.202-2.08 5.527 5.527 0 0 1 1.924-1.392c.76-.336 1.616-.505 2.567-.505.964 0 1.822.17 2.577.505a5.534 5.534 0 0 1 1.914 1.392 6.227 6.227 0 0 1 1.202 2.08c.278.796.417 1.657.417 2.586 0 .905-.139 1.75-.417 2.534a6.073 6.073 0 0 1-1.202 2.046 5.528 5.528 0 0 1-1.914 1.366c-.755.33-1.613.493-2.577.493-.951 0-1.807-.163-2.567-.493a5.522 5.522 0 0 1-1.924-1.366 6.074 6.074 0 0 1-1.202-2.046A7.512 7.512 0 0 1 0 115.779c0-.93.139-1.79.417-2.586M12.882 114.595v-1.654h1.48v-.696c0-.8.25-1.456.749-1.967.498-.51 1.253-.766 2.263-.766.22 0 .441.01.661.027.22.015.436.031.645.042v1.846a7.616 7.616 0 0 0-.906-.051c-.337 0-.577.078-.723.234-.146.155-.217.421-.217.792v.54h1.706v1.653h-1.706v7.346h-2.472v-7.346h-1.48z" mask="url(#d)"/>
        <path fill="#004785" d="M18.367 114.595v-1.654h1.48v-.696c0-.8.25-1.456.748-1.967.499-.51 1.254-.766 2.263-.766.22 0 .442.01.662.027.22.015.435.031.644.042v1.846a7.616 7.616 0 0 0-.905-.051c-.337 0-.578.078-.724.234-.145.155-.216.421-.216.792v.54h1.706v1.653h-1.706v7.346h-2.472v-7.346h-1.48zM25.174 121.94h2.472v-9h-2.472v9zm0-10.39h2.472v-2.038h-2.472v2.037zM33.895 114.56c-.395 0-.725.091-.992.27-.268.18-.484.413-.654.696a3.015 3.015 0 0 0-.356.94 4.885 4.885 0 0 0 0 2.011c.07.336.184.642.34.914.156.274.368.497.635.671.268.173.592.261.975.261.592 0 1.048-.166 1.367-.497.318-.33.52-.775.6-1.332h2.385c-.163 1.196-.627 2.106-1.393 2.733-.766.627-1.747.942-2.942.942a4.95 4.95 0 0 1-1.853-.34 4.143 4.143 0 0 1-1.437-.949 4.315 4.315 0 0 1-.922-1.454 5.054 5.054 0 0 1-.331-1.855c0-.696.101-1.342.304-1.939a4.38 4.38 0 0 1 .897-1.55 4.087 4.087 0 0 1 1.445-1.018c.568-.245 1.218-.366 1.95-.366.533 0 1.047.068 1.54.208.493.139.935.353 1.323.636.389.285.705.638.95 1.06.243.426.382.928.417 1.507h-2.42c-.163-1.032-.772-1.55-1.828-1.55M39.658 121.94h2.472v-9h-2.472v9zm0-10.39h2.472v-2.038h-2.472v2.037zM49.685 117.536a1.108 1.108 0 0 1-.393.22 3.979 3.979 0 0 1-.505.13c-.18.033-.368.065-.565.085-.197.026-.395.054-.591.087a5.363 5.363 0 0 0-.55.14 1.678 1.678 0 0 0-.47.235c-.133.099-.24.225-.32.376-.083.148-.123.341-.123.572 0 .224.04.409.122.56.08.15.192.268.33.355.14.087.302.149.488.182.185.037.377.054.575.054.487 0 .864-.08 1.131-.245.266-.16.464-.355.592-.583.127-.226.206-.456.234-.687a4.54 4.54 0 0 0 .045-.557v-.924zm-5.71-1.826c.035-.581.179-1.062.435-1.445.255-.383.58-.692.975-.923a4.242 4.242 0 0 1 1.332-.497c.493-.096.99-.147 1.488-.147.453 0 .91.032 1.375.097.464.061.888.188 1.271.373.383.185.696.443.94.774.244.33.366.77.366 1.315v4.683c0 .405.022.795.07 1.166.045.37.128.65.243.834h-2.507a3.591 3.591 0 0 1-.174-.868c-.395.405-.86.69-1.392.851a5.58 5.58 0 0 1-1.637.245c-.43 0-.83-.052-1.201-.156a2.755 2.755 0 0 1-.975-.488 2.262 2.262 0 0 1-.654-.835c-.156-.337-.234-.74-.234-1.203 0-.51.089-.93.27-1.26.18-.33.41-.595.696-.793.284-.196.609-.345.974-.444.366-.099.735-.176 1.107-.235.37-.058.736-.106 1.096-.139.36-.035.68-.087.958-.158.278-.068.498-.17.661-.304.162-.133.238-.328.227-.582 0-.268-.045-.48-.132-.638a.975.975 0 0 0-.348-.364 1.325 1.325 0 0 0-.505-.173 3.987 3.987 0 0 0-.617-.044c-.487 0-.87.104-1.149.313-.278.21-.441.556-.487 1.045h-2.472zM54.14 121.94h2.473v-12.43H54.14zM68.52 115.36c.314 0 .616-.022.906-.068.29-.046.546-.136.766-.27.22-.134.397-.323.532-.566.133-.243.199-.563.199-.957 0-.396-.066-.714-.2-.958a1.471 1.471 0 0 0-.531-.566 2.135 2.135 0 0 0-.766-.27 5.78 5.78 0 0 0-.905-.07h-2.124v3.725h2.124zm.75-5.848c.776 0 1.438.113 1.984.34.544.225.989.526 1.33.896.344.37.593.795.75 1.271.156.475.235.969.235 1.48 0 .498-.079.99-.234 1.472a3.448 3.448 0 0 1-.75 1.278c-.342.372-.787.67-1.331.898-.546.225-1.208.338-1.985.338h-2.872v4.455h-2.733v-12.428h5.605zM80.62 117.536a1.108 1.108 0 0 1-.393.22 3.979 3.979 0 0 1-.505.13c-.18.033-.368.065-.565.085-.198.026-.395.054-.592.087a5.363 5.363 0 0 0-.549.14 1.678 1.678 0 0 0-.47.235c-.133.099-.24.225-.321.376-.082.148-.122.341-.122.572 0 .224.04.409.122.56.08.15.191.268.33.355.14.087.301.149.488.182.185.037.377.054.575.054.487 0 .864-.08 1.131-.245.266-.16.464-.355.592-.583.127-.226.206-.456.234-.687a4.54 4.54 0 0 0 .045-.557v-.924zm-5.71-1.826c.034-.581.178-1.062.435-1.445.255-.383.579-.692.975-.923a4.242 4.242 0 0 1 1.332-.497c.492-.096.99-.147 1.488-.147.452 0 .91.032 1.375.097.464.061.888.188 1.271.373.383.185.696.443.94.774.244.33.366.77.366 1.315v4.683c0 .405.022.795.07 1.166.045.37.127.65.243.834h-2.507a3.591 3.591 0 0 1-.174-.868c-.396.405-.86.69-1.393.851a5.58 5.58 0 0 1-1.636.245c-.43 0-.83-.052-1.201-.156a2.755 2.755 0 0 1-.975-.488 2.262 2.262 0 0 1-.654-.835c-.156-.337-.234-.74-.234-1.203 0-.51.089-.93.27-1.26.18-.33.41-.595.695-.793.285-.196.61-.345.975-.444.366-.099.735-.176 1.107-.235.37-.058.735-.106 1.096-.139.36-.035.68-.087.958-.158.278-.068.498-.17.661-.304.162-.133.238-.328.227-.582 0-.268-.045-.48-.132-.638a.975.975 0 0 0-.348-.364 1.325 1.325 0 0 0-.505-.173 3.987 3.987 0 0 0-.617-.044c-.487 0-.87.104-1.149.313-.279.21-.442.556-.487 1.045H74.91zM87.356 112.941v1.672h.035a3.064 3.064 0 0 1 1.149-1.383c.255-.17.529-.3.818-.391.29-.094.592-.14.906-.14.161 0 .341.027.54.086v2.298a4.885 4.885 0 0 0-.888-.087c-.453 0-.836.076-1.15.224-.313.152-.566.36-.756.62-.192.262-.33.564-.41.914-.08.348-.122.725-.122 1.131v4.057h-2.472v-9h2.35zM96.721 112.941v1.654h-1.81v4.455c0 .42.07.698.209.839.14.14.418.207.835.207.14 0 .273-.004.4-.016.129-.012.25-.031.366-.052v1.914c-.209.034-.44.058-.696.07-.255.01-.505.017-.749.017-.383 0-.745-.026-1.087-.08a2.569 2.569 0 0 1-.905-.303 1.608 1.608 0 0 1-.619-.644c-.15-.279-.226-.643-.226-1.099v-5.308h-1.497v-1.654h1.497v-2.698h2.472v2.698h1.81zM100.256 112.941v1.254h.052c.314-.522.719-.902 1.219-1.141a3.527 3.527 0 0 1 1.532-.355c.661 0 1.204.089 1.627.27a2.41 2.41 0 0 1 1.001.746c.244.32.415.71.513 1.168.1.46.149.966.149 1.521v5.538h-2.472v-5.082c0-.744-.117-1.3-.348-1.663-.233-.368-.644-.55-1.236-.55-.674 0-1.16.2-1.463.602-.302.399-.452 1.059-.452 1.975v4.718h-2.472v-9h2.35zM113.67 115.048c-.297-.325-.748-.49-1.35-.49-.395 0-.722.069-.983.202s-.47.3-.627.497a1.825 1.825 0 0 0-.33.625c-.066.223-.104.42-.115.593h4.022c-.116-.626-.322-1.103-.618-1.427m-2.794 4.735c.371.36.905.54 1.601.54.5 0 .93-.125 1.288-.374.361-.25.581-.516.662-.793h2.176c-.348 1.078-.882 1.852-1.602 2.316-.718.465-1.59.696-2.61.696-.708 0-1.348-.112-1.916-.339a3.983 3.983 0 0 1-1.445-.967 4.342 4.342 0 0 1-.913-1.495 5.485 5.485 0 0 1-.323-1.917c0-.672.111-1.3.331-1.88.22-.58.533-1.082.94-1.505a4.422 4.422 0 0 1 1.454-1.002c.562-.243 1.186-.364 1.871-.364.766 0 1.434.146 2.002.442a4.01 4.01 0 0 1 1.402 1.193c.366.499.629 1.068.792 1.706.163.638.22 1.306.174 2.004h-6.494c.035.799.24 1.38.61 1.739M120.572 112.941v1.672h.034a3.065 3.065 0 0 1 1.149-1.383c.255-.17.529-.3.819-.391.29-.094.591-.14.905-.14.161 0 .342.027.54.086v2.298a4.885 4.885 0 0 0-.888-.087c-.453 0-.836.076-1.15.224-.313.152-.566.36-.756.62-.191.262-.329.564-.41.914-.08.348-.122.725-.122 1.131v4.057h-2.472v-9h2.35zM132.13 118.504c.07.343.189.648.358.922.168.274.39.49.67.654.278.161.626.242 1.044.242.418 0 .77-.08 1.054-.242.283-.163.51-.38.679-.654.168-.274.286-.579.356-.922a5.378 5.378 0 0 0 0-2.114 2.72 2.72 0 0 0-.356-.925 2 2 0 0 0-.679-.652c-.285-.168-.636-.253-1.054-.253-.418 0-.766.085-1.045.253a2 2 0 0 0-.669.652c-.17.267-.288.574-.358.924a5.378 5.378 0 0 0 0 2.115m-2.245-3.012a4.22 4.22 0 0 1 .94-1.499c.406-.41.894-.73 1.462-.956.568-.228 1.208-.338 1.915-.338.707 0 1.35.11 1.923.338a4.215 4.215 0 0 1 1.472.956c.406.413.72.913.94 1.499.22.585.33 1.24.33 1.958 0 .72-.11 1.369-.33 1.95a4.209 4.209 0 0 1-.94 1.489 4.069 4.069 0 0 1-1.472.948c-.573.221-1.216.33-1.923.33-.707 0-1.347-.109-1.915-.33a4.098 4.098 0 0 1-1.462-.948 4.209 4.209 0 0 1-.94-1.49c-.22-.58-.331-1.23-.331-1.95 0-.718.11-1.372.33-1.957M139.529 114.595v-1.654h1.48v-.696c0-.8.25-1.456.748-1.967.499-.51 1.254-.766 2.263-.766.22 0 .442.01.662.027.22.015.435.031.644.042v1.846a7.616 7.616 0 0 0-.905-.051c-.337 0-.578.078-.724.234-.145.155-.216.421-.216.792v.54h1.706v1.653h-1.706v7.346h-2.472v-7.346h-1.48zM155.214 109.512l2.907 8.546h.035l2.75-8.546h3.848v12.43h-2.56v-8.81h-.034l-3.046 8.81h-2.107l-3.046-8.722h-.035v8.722h-2.56v-12.43zM172.501 117.536a1.108 1.108 0 0 1-.392.22 3.979 3.979 0 0 1-.505.13c-.18.033-.369.065-.565.085-.198.026-.396.054-.592.087a5.363 5.363 0 0 0-.55.14 1.678 1.678 0 0 0-.47.235c-.132.099-.24.225-.32.376-.083.148-.122.341-.122.572 0 .224.04.409.122.56.08.15.191.268.33.355.14.087.301.149.488.182.185.037.376.054.574.054.488 0 .864-.08 1.132-.245.266-.16.463-.355.592-.583.126-.226.205-.456.234-.687a4.54 4.54 0 0 0 .044-.557v-.924zm-5.71-1.826c.035-.581.179-1.062.435-1.445.255-.383.58-.692.975-.923a4.242 4.242 0 0 1 1.333-.497c.492-.096.989-.147 1.487-.147.453 0 .91.032 1.376.097.463.061.888.188 1.27.373.384.185.697.443.94.774.244.33.366.77.366 1.315v4.683c0 .405.022.795.07 1.166.046.37.128.65.244.834h-2.507a3.591 3.591 0 0 1-.174-.868c-.396.405-.86.69-1.393.851a5.58 5.58 0 0 1-1.636.245c-.43 0-.831-.052-1.202-.156a2.755 2.755 0 0 1-.974-.488 2.262 2.262 0 0 1-.654-.835c-.157-.337-.234-.74-.234-1.203 0-.51.088-.93.269-1.26.18-.33.411-.595.696-.793.285-.196.61-.345.975-.444.366-.099.734-.176 1.106-.235.37-.058.736-.106 1.097-.139.36-.035.679-.087.957-.158.279-.068.499-.17.662-.304.161-.133.237-.328.226-.582 0-.268-.044-.48-.131-.638a.975.975 0 0 0-.348-.364 1.325 1.325 0 0 0-.505-.173 3.987 3.987 0 0 0-.617-.044c-.488 0-.87.104-1.15.313-.278.21-.44.556-.487 1.045h-2.472zM177.114 111.55h2.472v-2.038h-2.472v2.037zm-.957 11.506c.255 0 .478-.049.67-.147.19-.1.287-.318.287-.654v-9.313h2.472v9.435c0 .464-.05.864-.148 1.201a1.88 1.88 0 0 1-.505.846c-.238.224-.56.394-.966.503-.406.11-.922.166-1.549.166-.29 0-.552-.024-.783-.071v-2.037c.128.047.3.071.522.071zM184.025 118.504c.07.343.189.648.358.922.168.274.39.49.67.654.278.161.626.242 1.044.242.418 0 .77-.08 1.054-.242.283-.163.51-.38.679-.654.168-.274.286-.579.356-.922a5.378 5.378 0 0 0 0-2.114 2.72 2.72 0 0 0-.356-.925 2 2 0 0 0-.679-.652c-.285-.168-.636-.253-1.054-.253-.418 0-.766.085-1.045.253a2 2 0 0 0-.669.652c-.17.267-.288.574-.358.924a5.378 5.378 0 0 0 0 2.115m-2.245-3.012a4.22 4.22 0 0 1 .94-1.499c.406-.41.894-.73 1.462-.956.568-.228 1.208-.338 1.915-.338.707 0 1.35.11 1.923.338a4.215 4.215 0 0 1 1.472.956c.406.413.72.913.94 1.499.22.585.33 1.24.33 1.958 0 .72-.11 1.369-.33 1.95a4.209 4.209 0 0 1-.94 1.489 4.069 4.069 0 0 1-1.472.948c-.573.221-1.216.33-1.923.33-.707 0-1.347-.109-1.915-.33a4.098 4.098 0 0 1-1.462-.948 4.209 4.209 0 0 1-.94-1.49c-.22-.58-.331-1.23-.331-1.95 0-.718.11-1.372.33-1.957M194.714 112.941v1.672h.035a3.065 3.065 0 0 1 1.149-1.383c.255-.17.528-.3.818-.391.29-.094.592-.14.905-.14.162 0 .342.027.54.086v2.298a4.885 4.885 0 0 0-.888-.087c-.453 0-.836.076-1.149.224-.313.152-.566.36-.756.62-.192.262-.33.564-.41.914-.081.348-.122.725-.122 1.131v4.057h-2.472v-9h2.35zM206.969 109.512v10.132h6.058v2.298h-8.791v-12.43zM219.739 115.048c-.296-.325-.747-.49-1.35-.49-.394 0-.722.069-.983.202s-.47.3-.627.497a1.825 1.825 0 0 0-.33.625c-.065.223-.103.42-.114.593h4.021c-.116-.626-.321-1.103-.617-1.427m-2.795 4.735c.372.36.905.54 1.602.54.5 0 .929-.125 1.288-.374.36-.25.58-.516.661-.793h2.176c-.348 1.078-.881 1.852-1.601 2.316-.719.465-1.59.696-2.612.696-.707 0-1.346-.112-1.914-.339a3.983 3.983 0 0 1-1.445-.967 4.342 4.342 0 0 1-.914-1.495 5.485 5.485 0 0 1-.322-1.917c0-.672.11-1.3.33-1.88.22-.58.534-1.082.94-1.505a4.422 4.422 0 0 1 1.455-1.002c.562-.243 1.185-.364 1.87-.364.766 0 1.434.146 2.002.442a4.01 4.01 0 0 1 1.403 1.193c.365.499.628 1.068.791 1.706.163.638.22 1.306.174 2.004h-6.493c.034.799.239 1.38.609 1.739M229.897 117.536a1.108 1.108 0 0 1-.393.22 3.979 3.979 0 0 1-.505.13c-.18.033-.369.065-.565.085-.198.026-.395.054-.592.087a5.363 5.363 0 0 0-.549.14 1.678 1.678 0 0 0-.47.235c-.133.099-.24.225-.321.376-.082.148-.122.341-.122.572 0 .224.04.409.122.56.08.15.191.268.33.355.14.087.301.149.488.182.185.037.377.054.575.054.487 0 .864-.08 1.131-.245.266-.16.464-.355.592-.583.127-.226.206-.456.234-.687a4.54 4.54 0 0 0 .045-.557v-.924zm-5.71-1.826c.034-.581.178-1.062.435-1.445.255-.383.579-.692.975-.923a4.242 4.242 0 0 1 1.332-.497c.492-.096.99-.147 1.488-.147.452 0 .91.032 1.375.097.464.061.888.188 1.27.373.384.185.697.443.941.774.244.33.366.77.366 1.315v4.683c0 .405.022.795.07 1.166.045.37.127.65.243.834h-2.507a3.591 3.591 0 0 1-.174-.868c-.396.405-.86.69-1.393.851a5.58 5.58 0 0 1-1.636.245c-.43 0-.831-.052-1.201-.156a2.755 2.755 0 0 1-.975-.488 2.262 2.262 0 0 1-.654-.835c-.156-.337-.234-.74-.234-1.203 0-.51.089-.93.269-1.26.18-.33.412-.595.696-.793.285-.196.61-.345.975-.444.366-.099.735-.176 1.106-.235.37-.058.736-.106 1.097-.139.36-.035.68-.087.958-.158.278-.068.498-.17.661-.304.162-.133.238-.328.227-.582 0-.268-.045-.48-.132-.638a.975.975 0 0 0-.348-.364 1.325 1.325 0 0 0-.505-.173 3.987 3.987 0 0 0-.617-.044c-.487 0-.87.104-1.149.313-.279.21-.442.556-.487 1.045h-2.472zM239.401 119.609c.266-.14.488-.325.662-.559a2.47 2.47 0 0 0 .392-.791c.086-.296.13-.605.13-.93 0-.371-.035-.722-.104-1.053a2.654 2.654 0 0 0-.348-.88 1.802 1.802 0 0 0-.645-.61c-.267-.15-.604-.226-1.01-.226-.347 0-.646.07-.895.21-.252.138-.459.327-.627.566a2.37 2.37 0 0 0-.367.816c-.074.309-.112.63-.112.967 0 .325.031.648.095.967a2.6 2.6 0 0 0 .33.861c.159.255.363.465.62.627.254.163.574.244.957.244.348 0 .655-.07.922-.21m3.386 2.995c-.099.465-.31.896-.635 1.298-.324.4-.796.739-1.41 1.016-.616.28-1.439.42-2.472.42-.442 0-.891-.055-1.348-.165a4.329 4.329 0 0 1-1.255-.515 3.096 3.096 0 0 1-.94-.896c-.249-.365-.391-.804-.426-1.315h2.454c.116.466.342.787.68.966.336.18.724.27 1.166.27.696 0 1.202-.209 1.524-.625.318-.42.471-.946.46-1.586v-1.183h-.035a2.456 2.456 0 0 1-1.14 1.054 3.715 3.715 0 0 1-1.558.34c-.673 0-1.253-.122-1.74-.36a3.283 3.283 0 0 1-1.202-.973 4.048 4.048 0 0 1-.687-1.445 6.835 6.835 0 0 1-.218-1.75c0-.58.084-1.14.253-1.679a4.362 4.362 0 0 1 .74-1.43c.324-.409.727-.737 1.208-.982.483-.244 1.037-.364 1.663-.364.592 0 1.111.11 1.56.33.446.22.82.591 1.121 1.113h.035v-1.2h2.35v8.425c0 .36-.049.772-.148 1.236M251.012 121.94v-1.251h-.052c-.314.522-.72.899-1.219 1.132a3.61 3.61 0 0 1-1.532.348c-.661 0-1.204-.089-1.627-.261a2.356 2.356 0 0 1-1.001-.74 2.893 2.893 0 0 1-.513-1.169 7.152 7.152 0 0 1-.149-1.52v-5.538h2.472v5.083c0 .744.116 1.3.348 1.663.233.366.644.548 1.236.548.673 0 1.16-.2 1.463-.6.302-.4.452-1.059.452-1.975v-4.72h2.472v9h-2.35zM260.683 115.048c-.296-.325-.747-.49-1.35-.49-.394 0-.722.069-.983.202s-.47.3-.627.497a1.825 1.825 0 0 0-.33.625c-.065.223-.103.42-.114.593h4.021c-.115-.626-.321-1.103-.617-1.427m-2.795 4.735c.372.36.905.54 1.602.54.5 0 .929-.125 1.288-.374.36-.25.58-.516.661-.793h2.176c-.348 1.078-.881 1.852-1.601 2.316-.719.465-1.59.696-2.611.696-.708 0-1.347-.112-1.915-.339a3.983 3.983 0 0 1-1.445-.967 4.342 4.342 0 0 1-.913-1.495 5.485 5.485 0 0 1-.323-1.917c0-.672.11-1.3.33-1.88.22-.58.534-1.082.94-1.505a4.422 4.422 0 0 1 1.455-1.002c.562-.243 1.185-.364 1.87-.364.767 0 1.434.146 2.003.442a4.01 4.01 0 0 1 1.402 1.193c.365.499.628 1.068.791 1.706.163.638.22 1.306.174 2.004h-6.493c.035.799.239 1.38.609 1.739M275.994 119.817c.265 0 .522-.025.766-.077a1.86 1.86 0 0 0 .644-.263 1.3 1.3 0 0 0 .443-.494c.11-.21.166-.476.166-.8 0-.64-.18-1.096-.54-1.366-.359-.274-.835-.412-1.427-.412h-2.977v3.412h2.925zm-.157-5.273c.487 0 .888-.117 1.201-.35.313-.23.47-.609.47-1.131 0-.29-.052-.529-.157-.714a1.163 1.163 0 0 0-.417-.435 1.776 1.776 0 0 0-.602-.217 4.077 4.077 0 0 0-.704-.062h-2.56v2.91h2.769zm.348-5.033c.592 0 1.132.053 1.619.159.487.103.905.275 1.253.512.349.24.62.554.81.95.19.394.287.88.287 1.462 0 .625-.142 1.148-.427 1.567-.283.416-.704.76-1.261 1.026.766.221 1.337.606 1.715 1.158.377.55.565 1.215.565 1.993 0 .626-.122 1.17-.365 1.628a3.152 3.152 0 0 1-.985 1.122 4.39 4.39 0 0 1-1.41.646c-.527.14-1.07.207-1.627.207h-6.023v-12.43h5.85zM287.936 117.536a1.108 1.108 0 0 1-.392.22 3.979 3.979 0 0 1-.505.13c-.18.033-.369.065-.565.085-.198.026-.396.054-.592.087a5.363 5.363 0 0 0-.549.14 1.678 1.678 0 0 0-.47.235c-.133.099-.24.225-.321.376-.083.148-.122.341-.122.572 0 .224.04.409.122.56.08.15.191.268.33.355.14.087.301.149.488.182.185.037.377.054.574.054.488 0 .865-.08 1.132-.245.266-.16.464-.355.592-.583.127-.226.206-.456.234-.687a4.54 4.54 0 0 0 .044-.557v-.924zm-5.71-1.826c.035-.581.18-1.062.436-1.445.254-.383.579-.692.975-.923a4.242 4.242 0 0 1 1.332-.497c.492-.096.99-.147 1.488-.147.452 0 .91.032 1.375.097.464.061.888.188 1.27.373.384.185.697.443.94.774.245.33.366.77.366 1.315v4.683c0 .405.023.795.07 1.166.046.37.128.65.244.834h-2.507a3.591 3.591 0 0 1-.174-.868c-.396.405-.86.69-1.393.851a5.58 5.58 0 0 1-1.636.245c-.43 0-.831-.052-1.201-.156a2.755 2.755 0 0 1-.975-.488 2.262 2.262 0 0 1-.654-.835c-.157-.337-.234-.74-.234-1.203 0-.51.089-.93.269-1.26.18-.33.411-.595.696-.793.285-.196.61-.345.975-.444.366-.099.734-.176 1.106-.235.37-.058.736-.106 1.097-.139.36-.035.68-.087.958-.158.278-.068.498-.17.661-.304.162-.133.238-.328.226-.582 0-.268-.044-.48-.13-.638a.975.975 0 0 0-.35-.364 1.325 1.325 0 0 0-.504-.173 3.987 3.987 0 0 0-.617-.044c-.488 0-.87.104-1.15.313-.278.21-.44.556-.487 1.045h-2.472zM294.404 119.704c.109.192.251.349.427.47.172.122.373.213.6.271.226.059.46.086.704.086.174 0 .358-.02.55-.062.19-.04.365-.103.521-.19.157-.087.287-.203.391-.347a.918.918 0 0 0 .157-.55c0-.37-.247-.65-.74-.834-.493-.187-1.181-.372-2.063-.558a12.38 12.38 0 0 1-1.052-.288 3.613 3.613 0 0 1-.913-.435 2.1 2.1 0 0 1-.646-.679c-.162-.273-.244-.607-.244-1.001 0-.58.114-1.056.34-1.426.227-.37.524-.665.896-.882.372-.212.79-.364 1.254-.45.465-.086.94-.13 1.427-.13.488 0 .96.047 1.42.139.459.093.867.248 1.226.47.361.22.659.512.897.878s.38.828.426 1.385h-2.348c-.037-.477-.217-.798-.542-.969-.324-.166-.707-.25-1.149-.25-.139 0-.29.008-.452.025a1.53 1.53 0 0 0-.443.114.91.91 0 0 0-.34.252c-.094.11-.14.258-.14.445 0 .22.082.399.244.54.163.139.375.251.636.338.261.087.56.166.896.236.337.07.679.144 1.027.226.36.08.71.179 1.054.296.342.116.647.27.913.462.268.192.481.43.644.712.163.287.244.635.244 1.053 0 .593-.119 1.087-.356 1.489-.24.4-.55.722-.932.967a3.83 3.83 0 0 1-1.314.513 7.577 7.577 0 0 1-3.039-.008 4.048 4.048 0 0 1-1.33-.522 2.974 2.974 0 0 1-.958-.967c-.25-.4-.386-.904-.41-1.507h2.352c0 .267.054.497.165.688M307.111 115.048c-.295-.325-.747-.49-1.35-.49-.394 0-.721.069-.982.202s-.47.3-.627.497a1.825 1.825 0 0 0-.33.625c-.066.223-.104.42-.115.593h4.022c-.116-.626-.322-1.103-.618-1.427m-2.794 4.735c.372.36.905.54 1.601.54.5 0 .93-.125 1.288-.374.361-.25.581-.516.662-.793h2.176c-.348 1.078-.881 1.852-1.602 2.316-.718.465-1.59.696-2.61.696-.708 0-1.348-.112-1.916-.339a3.983 3.983 0 0 1-1.445-.967 4.342 4.342 0 0 1-.913-1.495 5.485 5.485 0 0 1-.323-1.917c0-.672.111-1.3.331-1.88.22-.58.533-1.082.94-1.505a4.422 4.422 0 0 1 1.455-1.002c.561-.243 1.185-.364 1.87-.364.766 0 1.434.146 2.002.442a4.01 4.01 0 0 1 1.402 1.193c.366.499.629 1.068.792 1.706.163.638.22 1.306.174 2.004h-6.494c.035.799.24 1.38.61 1.739M318.14 116.354a2.844 2.844 0 0 0-.384-.923 2.016 2.016 0 0 0-.652-.636c-.26-.155-.579-.236-.95-.236-.359 0-.672.08-.94.236a1.97 1.97 0 0 0-.66.636 2.844 2.844 0 0 0-.384.923 4.74 4.74 0 0 0-.122 1.095c0 .373.04.733.122 1.08.08.349.21.656.383.923.174.266.394.48.662.635.267.157.58.236.94.236.37 0 .688-.08.95-.236.259-.155.477-.369.651-.635.174-.267.303-.574.383-.922.081-.348.122-.708.122-1.081 0-.383-.041-.747-.122-1.095zm-4.005-6.842v4.525h.035a2.62 2.62 0 0 1 1.228-1.016 4.14 4.14 0 0 1 1.61-.323 3.438 3.438 0 0 1 2.532 1.132c.354.383.642.872.862 1.471.22.597.331 1.308.331 2.132 0 .823-.11 1.534-.33 2.132-.22.598-.509 1.089-.863 1.472a3.44 3.44 0 0 1-2.532 1.132c-.662 0-1.254-.105-1.776-.314a2.252 2.252 0 0 1-1.184-1.062h-.035v1.147h-2.35v-12.428h2.472zM327.905 117.536a1.108 1.108 0 0 1-.392.22 3.979 3.979 0 0 1-.505.13c-.18.033-.369.065-.565.085-.198.026-.396.054-.592.087a5.363 5.363 0 0 0-.549.14 1.678 1.678 0 0 0-.47.235c-.133.099-.24.225-.321.376-.083.148-.122.341-.122.572 0 .224.04.409.122.56.08.15.191.268.33.355.14.087.301.149.488.182.185.037.377.054.574.054.488 0 .864-.08 1.132-.245.266-.16.464-.355.592-.583.126-.226.206-.456.234-.687a4.54 4.54 0 0 0 .044-.557v-.924zm-5.71-1.826c.035-.581.18-1.062.436-1.445.254-.383.579-.692.974-.923a4.242 4.242 0 0 1 1.333-.497c.492-.096.99-.147 1.488-.147.452 0 .91.032 1.375.097.464.061.888.188 1.27.373.384.185.697.443.94.774.244.33.366.77.366 1.315v4.683c0 .405.023.795.07 1.166.046.37.128.65.244.834h-2.507a3.591 3.591 0 0 1-.174-.868c-.396.405-.86.69-1.393.851a5.58 5.58 0 0 1-1.636.245c-.43 0-.831-.052-1.201-.156a2.755 2.755 0 0 1-.975-.488 2.262 2.262 0 0 1-.654-.835c-.157-.337-.234-.74-.234-1.203 0-.51.088-.93.269-1.26.18-.33.411-.595.696-.793.285-.196.61-.345.975-.444.366-.099.734-.176 1.106-.235.37-.058.736-.106 1.097-.139.36-.035.679-.087.958-.158.278-.068.498-.17.661-.304.161-.133.237-.328.226-.582 0-.268-.044-.48-.131-.638a.975.975 0 0 0-.348-.364 1.325 1.325 0 0 0-.505-.173 3.987 3.987 0 0 0-.617-.044c-.488 0-.87.104-1.15.313-.278.21-.44.556-.487 1.045h-2.472zM332.362 121.94h2.472v-12.43h-2.472zM336.854 121.94h2.472v-12.43h-2.472z" mask="url(#d)"/>
        <path fill="#044DA1" d="M80.07 59.035L99.217.049l58.99 19.143-19.145 58.988z" mask="url(#d)"/>
        <path stroke="#044DA1" stroke-width=".048" d="M80.07 59.035L99.217.049l58.99 19.143-19.145 58.988z" mask="url(#d)"/>
        <path fill="#009ED9" d="M143.334 86.894l-4.491-61.854 61.855-4.493 4.49 61.855z" mask="url(#d)"/>
        <path stroke="#009ED9" stroke-width=".048" d="M143.334 86.894l-4.491-61.854 61.855-4.493 4.49 61.855z" mask="url(#d)"/>
        <path fill="#00AC7D" d="M197.374 75.643l6.803-61.642 61.64 6.804-6.805 61.644z" mask="url(#d)"/>
        <path stroke="#00AC7D" stroke-width=".048" d="M197.374 75.643l6.803-61.642 61.64 6.804-6.805 61.644z" mask="url(#d)"/>
        <path fill="#FEFEFE" d="M95.686 33.892h13.95c11.108 0 9.813 5.272 7.757 11.067-2.052 5.8-4.488 11.07-15.598 11.07H87.846l7.84-22.137zm3.242 17.982h1.911c3.721 0 4.515-.93 6.635-6.915 2.12-5.982 1.984-6.912-1.738-6.912h-1.912l-4.896 13.827zM136.028 33.46c9.818 0 12.034 3.224 9.103 11.5-2.931 8.28-7.434 11.503-17.25 11.503-9.819 0-12.035-3.223-9.104-11.504 2.933-8.275 7.432-11.499 17.25-11.499m-6.763 19.097c2.945 0 3.826-1.614 5.945-7.598 2.12-5.982 2.38-7.594-.565-7.594s-3.826 1.612-5.945 7.594c-2.121 5.984-2.38 7.598.565 7.598M163.813 33.46c9.817 0 12.034 3.224 9.103 11.5-2.931 8.28-7.434 11.503-17.249 11.503-9.818 0-12.035-3.223-9.103-11.504 2.931-8.275 7.43-11.499 17.249-11.499m-6.764 19.097c2.945 0 3.825-1.614 5.944-7.598 2.12-5.982 2.382-7.594-.562-7.594-2.947 0-3.828 1.612-5.946 7.594-2.122 5.984-2.38 7.598.564 7.598M190.778 40.28l.184-.527c.46-1.302-.033-2.388-1.893-2.388-2.065 0-3.336.962-3.687 1.955-1.55 4.37 14.916 2.231 12.053 10.323-1.671 4.711-7.017 6.82-15.49 6.82-7.956 0-11.82-1.644-10.196-6.233l.276-.772h9.3l-.186.525c-.67 1.891.381 2.573 2.24 2.573 1.963 0 3.429-.929 3.86-2.138 1.545-4.372-14.31-2.203-11.53-10.046 1.581-4.463 6.425-6.911 14.538-6.911 8.37 0 11.198 2.076 9.52 6.82h-8.989zM211.403 33.892h12.093l1.15 22.136h-10.23l.388-3.874h-7.645l-2.355 3.874h-10.232l16.831-22.136zm4.495 4.528h-.103l-5.963 9.394h5.374l.692-9.394zM233.672 33.892h10.748l1.37 13.642h.102l4.834-13.642h8.988l-7.839 22.136h-10.541l-1.562-13.672h-.106l-4.843 13.672h-8.99z" mask="url(#d)"/>
    </g>
</svg>
